<?xml version="1.0" encoding="UTF-8"?>
<svg xmlns="http://www.w3.org/2000/svg" version="1.1" viewBox="0 0 100 100">
  <defs>
    <style>
      .cls-1, .cls-2 {
        fill: none;
      }

      .cls-2 {
        stroke: #000;
        stroke-miterlimit: 10;
        stroke-width: .2px;
      }
    </style>
  </defs>
  <!-- Generator: Adobe Illustrator 28.7.1, SVG Export Plug-In . SVG Version: 1.2.0 Build 142)  -->
  <g>
    <g id="Layer_1">
      <path class="cls-2" d="M29.8,24.3v1.7h1.7c1.9,0,1.8,0,1.8,1s.3,3.1.6,4.5c.6,2.6,1.6,5.2,2.8,7.2,1.3,2.2,2.4,3.4,6.9,7.7,2.4,2.3,2.9,3.2,2.9,4.9s-.5,2.6-2.9,4.9c-4.5,4.4-5.6,5.6-6.9,7.7-1.2,2-2.3,4.6-2.8,7.2-.3,1.4-.6,3.7-.6,4.5s0,1-1.8,1h-1.7v3.4h43.8v-3.4h-1.7c-1.9,0-1.8,0-1.8-1s-.3-3.1-.6-4.5c-.6-2.6-1.6-5.2-2.8-7.2-1.3-2.2-2.4-3.4-6.9-7.7-2.4-2.3-2.9-3.2-2.9-4.9s.5-2.6,2.9-4.9c4.5-4.4,5.6-5.6,6.9-7.7,1.2-2,2.3-4.6,2.8-7.2.3-1.4.6-3.7.6-4.5s0-1,1.8-1h1.7v-3.4H29.8v1.7ZM66.8,26.5c-.2,2.6-.7,5-1.2,6.7l-.2.6h-27.2l-.2-.6c-.6-1.6-1-4-1.2-6.7v-.5c0,0,15.1,0,15.1,0h15.1v.5ZM63.1,37.9c-.8,1.2-2,2.4-4.6,4.9-2.6,2.5-3.6,3.6-4.1,4.6l-.3.6h-4.9l-.3-.6c-.6-1-1.6-2.1-4.1-4.6-2.6-2.5-3.8-3.8-4.6-4.9l-.5-.7h23.8l-.5.7ZM50,58.1v5.9h-.4c-.2.1-2.9,1.2-5.9,2.4s-5.5,2.2-5.5,2.2c-.1-.1,1.4-2.8,2.1-3.8,1-1.4,2.2-2.7,4.6-5,1.1-1.1,2.3-2.2,2.6-2.6,1.2-1.4,2-2.8,2.3-4.2,0-.4.2-.7.2-.7,0,0,0,2.7,0,5.9ZM54,54.4c.7,1.6,1.5,2.6,4.5,5.4,2.4,2.2,3.6,3.6,4.6,5,.7,1,2.2,3.7,2.1,3.8s-2.5-1-5.5-2.2-5.6-2.3-5.9-2.3h-.4c0,0,0-6,0-6,0-5.5,0-5.9.2-5.1,0,.4.3,1.1.4,1.4ZM53,67.4c.6.1,13.2,5.3,13.4,5.4,0,0,.4,2.6.4,3.2v.6s-15.1,0-15.1,0h-15.1v-.6c0-.6.4-3.2.4-3.2.2-.1,12.8-5.3,13.3-5.4.9-.3,1.7-.3,2.7,0Z"/>
      <polygon class="cls-2" points="42.9 40.9 60.4 40.9 58.2 43.1 45.2 43.1 42.9 40.9"/>
      <polygon class="cls-1" points="34.9 73.5 65.1 73.5 64.9 71.6 35.1 71.6 34.9 73.5"/>
    </g>
  </g>
</svg>