<?xml version="1.0" encoding="UTF-8"?>
<svg xmlns="http://www.w3.org/2000/svg" version="1.1" viewBox="0 0 2880 1800">
  <defs>
    <style>
      .cls-1 {
        fill: none;
        stroke: #000;
        stroke-miterlimit: 10;
        stroke-width: 2px;
      }
    </style>
  </defs>
  <!-- Generator: Adobe Illustrator 28.7.1, SVG Export Plug-In . SVG Version: 1.2.0 Build 142)  -->
  <g>
    <g id="Layer_1">
      <path class="cls-1" d="M1014.8,509.6v28.3h28.1c31.8,0,30.3-.9,30.3,17s5.5,51.6,10.5,75.4c9.4,43,26.9,87.4,47.3,120.6,22.4,36.4,40.5,56.5,116.4,130,40.5,39.2,48.8,53.3,48.8,82.9s-8.3,43.7-48.8,82.9c-75.9,73.5-94,93.6-116.4,130-20.3,33.2-37.9,77.6-47.3,120.6-5.1,23.7-10.5,61.8-10.5,75.4s1.5,17-30.3,17h-28.1v56.5h734.7v-56.5h-28.1c-31.8,0-30.3.9-30.3-17s-5.5-51.6-10.5-75.4c-9.4-43-26.9-87.4-47.3-120.6-22.4-36.4-40.5-56.5-116.4-130-40.5-39.2-48.8-53.3-48.8-82.9s8.3-43.7,48.8-82.9c75.9-73.5,94-93.6,116.4-130,20.3-33.2,37.9-77.6,47.3-120.6,5.1-23.7,10.5-61.8,10.5-75.4s-1.5-17,30.3-17h28.1v-56.5h-734.7v28.3ZM1635.1,546.7c-4,44.1-11.5,84.2-20.9,111.7l-3.6,10.4h-457l-3.6-10.4c-9.4-27.5-17-67.6-20.9-111.7l-.9-8.9h507.9l-.9,8.9ZM1573.9,737.9c-13.8,19.6-33,40.3-76.7,82.5-43,41.3-59.9,60.3-69.1,77.1l-5.1,9.6h-81.8l-5.1-9.6c-9.2-16.8-26.2-35.8-69.1-77.1-43.7-42.2-62.9-62.9-76.7-82.5l-8.1-11.7h399.8l-8.1,11.7ZM1353.9,1077.4v98.7l-7,1.3c-4,.6-48.2,18.1-98.3,38.8-50.1,20.7-91.6,37.3-92.1,36.7-1.9-1.9,22.8-47.7,34.5-64.4,17-23.5,37.5-45.8,77.4-83.3,18.7-17.7,38.4-37.1,43.9-43.1,20.5-22.8,33.7-47.7,38.2-71,1.3-6.8,2.6-12.4,2.8-12.4.4,0,.6,44.5.6,98.7ZM1420.9,1015c11.1,26.2,25.8,43.9,75,90.2,39.9,37.5,60.5,59.7,77.4,83.3,11.7,16.8,36.4,62.5,34.5,64.4s-42-16-92.1-36.7c-50.1-20.7-94.4-38.2-98.1-38.8l-7.2-1.3.2-99.3c.2-92.5.4-98.1,3-86.1,1.5,7.3,4.9,18.3,7.3,24.3ZM1404,1232.8c9.2,2.4,221.4,88.9,224.4,91.4.6.6,6,43.7,6.8,54.4l.8,10.7h-507.5l.8-10.7c.8-10.7,6.2-53.9,6.8-54.4,2.6-2.3,214.8-88.9,223.6-91.4,15.8-4.3,28.3-4.3,44.5,0Z"/>
      <polygon class="cls-1" points="1235.4 789.3 1528.9 789.3 1491.6 825.9 1272.7 825.9 1235.4 789.3"/>
      <polygon class="cls-1" points="1129.1 1358.1 1635.1 1358.1 1631.4 1325.3 1132.8 1325.3 1129.1 1358.1"/>
    </g>
  </g>
</svg>