<?xml version="1.0" encoding="iso-8859-1"?>
<!-- Generator: Adobe Illustrator 28.7.1, SVG Export Plug-In . SVG Version: 9.03 Build 54978)  -->
<svg version="1.1" xmlns="http://www.w3.org/2000/svg" xmlns:xlink="http://www.w3.org/1999/xlink" x="0px" y="0px"
	 viewBox="0 0 2880 1800" style="enable-background:new 0 0 2880 1800;" xml:space="preserve">
<g id="Layer_1" style="display:none;">
	<g transform="translate(0.000000,512.000000) scale(0.100000,-0.100000)" style="display:inline;">
		<path style="fill:none;stroke:#000000;stroke-width:2;stroke-miterlimit:10;" d="M10147.604,24.246v-282.58h280.696
			c318.374,0,303.303,9.419,303.303-169.548c0-135.639,54.633-516.18,105.497-753.547
			c94.193-429.522,269.393-874.115,472.851-1205.676c224.181-363.586,405.031-565.16,1164.23-1299.869
			c405.031-391.845,487.922-533.135,487.922-828.902c0-295.768-82.891-437.058-487.922-828.902
			c-759.199-734.708-940.05-936.282-1164.23-1299.869c-203.458-331.561-378.657-776.154-472.851-1205.676
			c-50.864-237.367-105.497-617.909-105.497-753.547c0-178.968,15.071-169.549-303.303-169.549h-280.696v-282.58v-282.58h3673.543
			h3673.543v282.58v282.58h-280.697c-318.373,0-303.303-9.419-303.303,169.549c0,135.638-54.631,516.18-105.496,753.547
			c-94.193,429.522-269.393,874.115-472.851,1205.676c-224.181,363.586-405.031,565.16-1164.23,1299.869
			c-405.032,391.845-487.922,533.135-487.922,828.902c0,295.767,82.89,437.057,487.922,828.902
			c759.199,734.708,940.05,936.282,1164.23,1299.869c203.458,331.561,378.657,776.154,472.851,1205.676
			c50.865,237.367,105.496,617.909,105.496,753.547c0,178.967-15.07,169.548,303.303,169.548h280.697v282.58v282.58h-3673.543
			h-3673.543V24.246z M16351.182-346.876c-39.562-440.825-114.916-842.089-209.109-1117.134l-35.794-103.613h-2285.132h-2285.132
			l-35.794,103.613c-94.193,275.045-169.548,676.309-209.109,1117.134l-9.419,88.542h2539.454h2539.454L16351.182-346.876z
			 M15738.924-2259.003c-137.521-195.922-329.677-403.148-766.734-825.134c-429.521-412.567-599.069-602.838-691.379-770.502
			l-50.864-96.077h-408.8h-408.8l-50.864,96.077c-92.31,167.664-261.857,357.935-691.379,770.502
			c-437.058,421.987-629.213,629.212-766.734,825.134l-81.007,116.8h1998.784h1998.784L15738.924-2259.003z M13538.566-5653.733
			v-987.147l-69.703-13.187c-39.562-5.652-482.271-180.852-983.379-388.077c-501.109-207.225-915.561-373.006-921.212-367.354
			c-18.839,18.839,227.948,476.619,344.748,644.283c169.548,235.484,374.89,457.78,774.27,832.67
			c186.503,177.083,384.31,371.122,438.941,431.406c205.342,227.948,337.212,476.619,382.425,710.218
			c13.188,67.819,26.375,124.335,28.259,124.335C13536.683-4666.586,13538.566-5111.179,13538.566-5653.733z M14209.224-5030.173
			c111.147-261.857,258.09-438.941,749.779-902.373c399.38-374.89,604.722-597.186,774.27-832.67
			c116.8-167.664,363.587-625.444,344.748-644.283c-5.651-5.652-420.103,160.129-921.212,367.354
			c-501.108,207.226-943.817,382.425-981.495,388.077l-71.587,13.187l1.884,992.798c1.884,924.979,3.768,981.496,30.143,860.928
			C14150.823-4860.625,14184.733-4969.889,14209.224-5030.173z M14039.675-7207.924c92.31-24.49,2213.546-889.186,2243.688-913.676
			c5.651-5.652,60.283-437.057,67.819-544.438l7.535-107.381h-2537.57h-2537.57l7.535,107.381
			c7.536,107.381,62.168,538.786,67.819,544.438c26.374,22.606,2147.609,889.186,2236.151,913.676
			C13753.327-7164.595,13877.662-7164.595,14039.675-7207.924z"/>
	</g>
	<polygon style="display:inline;fill:none;stroke:#000000;stroke-width:2;stroke-miterlimit:10;" points="1235.376,789.305 
		1528.853,789.305 1491.552,825.874 1272.677,825.874 	"/>
	<polygon style="display:inline;fill:none;stroke:#000000;stroke-width:2;stroke-miterlimit:10;" points="1129.111,1358.096 
		1635.118,1358.096 1631.434,1325.297 1132.795,1325.297 	"/>
</g>
<g id="Layer_2">
	<g>
		<g>
			<path d="M2821.679-500c1.93,0,1.933-3,0-3C2819.749-503,2819.745-500,2821.679-500L2821.679-500z"/>
		</g>
	</g>
	<g>
		<g>
			<path d="M2741.238-298.898c1.93,0,1.934-3,0-3C2739.308-301.898,2739.304-298.898,2741.238-298.898L2741.238-298.898z"/>
		</g>
	</g>
</g>
</svg>
